<svg xmlns="http://www.w3.org/2000/svg" viewBox="0 0 1200 800" fill="none">
  <defs>
    <radialGradient id="nebula1" cx="25%" cy="30%">
      <stop offset="0%" stop-color="#3b4fb0" stop-opacity="0.35"></stop>
      <stop offset="60%" stop-color="#1e2a6b" stop-opacity="0.15"></stop>
      <stop offset="100%" stop-color="#0d1230" stop-opacity="0"></stop>
    </radialGradient>
    <radialGradient id="nebula2" cx="75%" cy="70%">
      <stop offset="0%" stop-color="#2e5fb8" stop-opacity="0.28"></stop>
      <stop offset="70%" stop-color="#141a44" stop-opacity="0.1"></stop>
      <stop offset="100%" stop-color="#060a1e" stop-opacity="0"></stop>
    </radialGradient>
    <radialGradient id="nebula3" cx="60%" cy="15%">
      <stop offset="0%" stop-color="#d98324" stop-opacity="0.2"></stop>
      <stop offset="80%" stop-color="#8a4a10" stop-opacity="0"></stop>
    </radialGradient>
  </defs>
  
  <rect width="1200" height="800" fill="url(#nebula1)"></rect>
  <rect width="1200" height="800" fill="url(#nebula2)"></rect>
  <rect width="1200" height="800" fill="url(#nebula3)"></rect>

  
  <g stroke="#7d8ed8" stroke-width="0.6" opacity="0.45">
    <line x1="120" y1="110" x2="210" y2="170"></line>
    <line x1="210" y1="170" x2="310" y2="140"></line>
    <line x1="210" y1="170" x2="250" y2="290"></line>
    <line x1="250" y1="290" x2="340" y2="340"></line>
    <line x1="250" y1="290" x2="170" y2="360"></line>

    <line x1="480" y1="90" x2="560" y2="140"></line>
    <line x1="560" y1="140" x2="620" y2="240"></line>
    <line x1="620" y1="240" x2="710" y2="270"></line>
    <line x1="710" y1="270" x2="800" y2="220"></line>

    <line x1="930" y1="120" x2="1020" y2="180"></line>
    <line x1="1020" y1="180" x2="1080" y2="280"></line>
    <line x1="1080" y1="280" x2="1010" y2="360"></line>
    <line x1="1010" y1="360" x2="900" y2="330"></line>
    <line x1="900" y1="330" x2="900" y2="230"></line>
    <line x1="900" y1="230" x2="1020" y2="180"></line>

    <line x1="190" y1="560" x2="290" y2="600"></line>
    <line x1="290" y1="600" x2="390" y2="570"></line>
    <line x1="390" y1="570" x2="440" y2="640"></line>
    <line x1="440" y1="640" x2="350" y2="700"></line>

    <line x1="640" y1="530" x2="740" y2="580"></line>
    <line x1="740" y1="580" x2="840" y2="620"></line>
    <line x1="840" y1="620" x2="920" y2="560"></line>
    <line x1="920" y1="560" x2="860" y2="470"></line>
  </g>

  
  <g>
    <circle cx="120" cy="110" r="1.8" fill="#b8cfff" opacity="0.9"></circle>
    <circle cx="210" cy="170" r="3" fill="#e8d28a"></circle>
    <circle cx="310" cy="140" r="1.5" fill="#b8cfff" opacity="0.8"></circle>
    <circle cx="250" cy="290" r="2.4" fill="#b8cfff"></circle>
    <circle cx="340" cy="340" r="1.8" fill="#e8d28a" opacity="0.85"></circle>
    <circle cx="170" cy="360" r="1.4" fill="#d2dcf4" opacity="0.7"></circle>

    <circle cx="480" cy="90" r="1.5" fill="#b8cfff" opacity="0.7"></circle>
    <circle cx="560" cy="140" r="2.4" fill="#e8d28a"></circle>
    <circle cx="620" cy="240" r="2" fill="#b8cfff"></circle>
    <circle cx="710" cy="270" r="3.2" fill="#e8d28a"></circle>
    <circle cx="800" cy="220" r="1.8" fill="#b8cfff" opacity="0.85"></circle>

    <circle cx="930" cy="120" r="1.4" fill="#d2dcf4" opacity="0.7"></circle>
    <circle cx="1020" cy="180" r="2.4" fill="#e8d28a"></circle>
    <circle cx="1080" cy="280" r="2" fill="#b8cfff"></circle>
    <circle cx="1010" cy="360" r="3" fill="#e8d28a"></circle>
    <circle cx="900" cy="330" r="1.6" fill="#b8cfff" opacity="0.8"></circle>
    <circle cx="900" cy="230" r="1.4" fill="#d2dcf4" opacity="0.7"></circle>

    <circle cx="190" cy="560" r="1.6" fill="#b8cfff" opacity="0.85"></circle>
    <circle cx="290" cy="600" r="2.6" fill="#e8d28a"></circle>
    <circle cx="390" cy="570" r="2" fill="#b8cfff"></circle>
    <circle cx="440" cy="640" r="2.2" fill="#e8d28a" opacity="0.9"></circle>
    <circle cx="350" cy="700" r="1.4" fill="#d2dcf4" opacity="0.7"></circle>

    <circle cx="640" cy="530" r="1.8" fill="#b8cfff" opacity="0.85"></circle>
    <circle cx="740" cy="580" r="2.4" fill="#e8d28a"></circle>
    <circle cx="840" cy="620" r="2" fill="#b8cfff"></circle>
    <circle cx="920" cy="560" r="1.8" fill="#e8d28a" opacity="0.9"></circle>
    <circle cx="860" cy="470" r="2.6" fill="#e8d28a"></circle>
  </g>

  
  <g fill="#7d8ed8" opacity="0.5">
    <circle cx="80" cy="250" r="0.8"></circle><circle cx="380" cy="40" r="0.6"></circle>
    <circle cx="520" cy="410" r="0.7"></circle><circle cx="860" cy="90" r="0.6"></circle>
    <circle cx="1140" cy="500" r="0.8"></circle><circle cx="90" cy="650" r="0.7"></circle>
    <circle cx="510" cy="720" r="0.6"></circle><circle cx="1090" cy="730" r="0.8"></circle>
    <circle cx="160" cy="460" r="0.6"></circle><circle cx="410" cy="240" r="0.5"></circle>
    <circle cx="600" cy="60" r="0.7"></circle><circle cx="1050" cy="60" r="0.6"></circle>
    <circle cx="710" cy="400" r="0.7"></circle><circle cx="830" cy="720" r="0.6"></circle>
    <circle cx="60" cy="400" r="0.6"></circle><circle cx="1160" cy="180" r="0.8"></circle>
    <circle cx="320" cy="460" r="0.7"></circle><circle cx="580" cy="680" r="0.6"></circle>
    <circle cx="260" cy="40" r="0.5"></circle><circle cx="980" cy="700" r="0.7"></circle>
  </g>

  
  <g fill="#e8d28a" opacity="0.6">
    <circle cx="220" cy="440" r="0.8"></circle>
    <circle cx="760" cy="140" r="0.9"></circle>
    <circle cx="1080" cy="580" r="0.8"></circle>
    <circle cx="440" cy="480" r="0.7"></circle>
    <circle cx="160" cy="700" r="0.8"></circle>
  </g>
</svg>