<svg xmlns="http://www.w3.org/2000/svg" viewBox="0 0 400 120" fill="none">
  
  <g transform="translate(60 60)">
    <circle cx="0" cy="0" r="36" stroke="#e1b968" stroke-width="1" fill="none" opacity="0.35"></circle>
    <circle cx="0" cy="0" r="26" stroke="#e1b968" stroke-width="1" fill="none" opacity="0.55"></circle>
    <circle cx="0" cy="0" r="6" fill="#e1b968"></circle>
    <g stroke="#e1b968" stroke-width="1.5" stroke-linecap="square">
      
      <line x1="0" y1="-40" x2="0" y2="-28"></line>
      <line x1="25.7" y1="-30.7" x2="18" y2="-21.5"></line>
      <line x1="39.4" y1="-6.9" x2="27.5" y2="-4.9"></line>
      <line x1="34.6" y1="20" x2="24.2" y2="14"></line>
      <line x1="13.7" y1="37.6" x2="9.6" y2="26.3"></line>
      <line x1="-13.7" y1="37.6" x2="-9.6" y2="26.3"></line>
      <line x1="-34.6" y1="20" x2="-24.2" y2="14"></line>
      <line x1="-39.4" y1="-6.9" x2="-27.5" y2="-4.9"></line>
      <line x1="-25.7" y1="-30.7" x2="-18" y2="-21.5"></line>
    </g>
    
    <g stroke="#d98324" stroke-width="1.2" fill="none">
      <path d="M 0 -14 L 4 -4 L 14 0 L 4 4 L 0 14 L -4 4 L -14 0 L -4 -4 Z"></path>
    </g>
  </g>
  
  <line x1="120" y1="20" x2="108" y2="100" stroke="#b5863a" stroke-width="1" opacity="0.6"></line>
  
  <g fill="#f5edd8" font-family="JetBrains Mono, monospace" font-weight="800" letter-spacing="8">
    <text x="140" y="76" font-size="52">USURP</text>
  </g>
  
  <text x="141" y="96" fill="#d4c4a8" font-family="JetBrains Mono, monospace" font-weight="500" font-size="9" letter-spacing="4">THE·RITE·OF·COWRIES</text>
  
  <g stroke="#b5863a" stroke-width="1" fill="none">
    <path d="M 370 16 L 380 16 L 380 26"></path>
    <path d="M 370 104 L 380 104 L 380 94"></path>
  </g>
</svg>